# xmcd
#
# Track frame offsets: 
#        150
#        17226
#        28496
#        40196
#        50122
#        64580
#        83711
#        98239
#        109577
#        128145
#        142352
#        152005
#        160388
#        168037
#        178280
#
# Disc length: 2537 seconds
#
# Revision: 0
# Processed by: cddbd v1.4PL0 Copyright (c) Steve Scherf et al.
# Submitted via: ExactAudioCopy v0.90b4
#
DISCID=d109e70f
DTITLE=Joaquin Murphey - Murph
DYEAR=1996
DGENRE=Country
TTITLE0=Squirrley Shirley
TTITLE1=Pauline
TTITLE2=Vicodin Stomp
TTITLE3=I'll Never Smile Again
TTITLE4=Charmaine
TTITLE5=Penthouse Serenade
TTITLE6=Melancholy Baby
TTITLE7=Red Sails in the Sunset
TTITLE8=Night and Day
TTITLE9=Moon of Manakoora
TTITLE10=Sun Valley Suite Pt. 1
TTITLE11=Sun Valley Suite Pt. 2
TTITLE12=Sun Valley Suite Pt. 3
TTITLE13=Sun Valley Suite Pt. 4
TTITLE14=So Says Murph
EXTD=
EXTT0=
EXTT1=
EXTT2=
EXTT3=
EXTT4=
EXTT5=
EXTT6=
EXTT7=
EXTT8=
EXTT9=
EXTT10=
EXTT11=
EXTT12=
EXTT13=
EXTT14=
PLAYORDER=
